<svg width="80" height="80" viewBox="0 0 80 80" fill="none" xmlns="http://www.w3.org/2000/svg">
<circle cx="40" cy="40" r="40" fill="white"/>
<path opacity="0.5" d="M37.1534 30.9275C37.1473 30.9275 37.1426 30.9275 37.1372 30.9268C37.5146 30.9435 37.6058 30.9474 37.1534 30.9275Z" fill="black"/>
<path d="M70.8488 42.6364C70.0392 42.3038 65.7929 40.09 64.0522 39.9649C62.3115 39.8398 62.7229 40.2914 61.1546 39.4126C59.5848 38.5338 59.5848 38.5338 59.5848 38.5338C59.5848 38.5338 60.3202 37.1538 60.6365 35.2902C60.9527 33.4266 61.2489 32.4052 61.2489 32.4052C61.2489 32.4052 64.0584 30.4561 65.5207 31.2678C66.9846 32.0802 66.9761 32.1168 67.7594 31.714C68.5428 31.3113 67.7463 30.5149 67.7463 30.5149C67.7463 30.5149 68.3588 31.2838 68.7763 30.4653C68.9565 30.1113 69.4948 29.1982 68.4214 28.041C67.0867 26.6023 67.9953 26.6251 67.3527 26.2514C66.7085 25.876 65.1642 24.9324 63.9648 24.7257C62.7399 24.5144 62.7569 24.6692 61.9232 24.4663C61.6634 24.7653 62.3888 25.5488 62.3888 25.5488C62.3888 25.5488 60.208 25.4717 58.8834 26.1644C57.5602 26.854 57.5757 27.0043 56.0175 27.7C54.4592 28.3972 54.8521 27.7137 52.6713 28.4819C50.4906 29.2501 48.4243 31.2045 46.812 31.6187C44.4766 32.2183 35.5046 30.8597 37.1363 30.926C36.0815 30.8795 32.7856 30.7323 32.7856 30.7323C27.8844 31.0038 26.0972 31.3608 20.292 36.407C14.4867 41.4532 12.2186 42.0566 8.09529 42.1382C3.97199 42.2214 5.68565 41.1336 4.01066 41.1015C2.33643 41.0695 3.2443 41.9918 3.25745 42.6821C3.2706 43.3748 5.60059 44.114 8.33347 44.114C11.0671 44.114 15.2044 42.9979 22.2059 37.4231C24.3047 35.7525 25.5002 34.7906 26.1475 34.2612C25.9549 35.1575 24.5607 41.4669 23.2259 42.1039C21.7883 42.792 19.4901 43.6776 17.8452 44.8692C16.2004 46.0623 15.2059 49.4325 15.0799 50.4371C14.953 51.441 15.376 51.9407 15.9011 52.2741C16.4254 52.6067 16.6512 53.0773 17.4377 53.0773C18.2241 53.0773 17.7911 52.4358 17.5212 52.062C16.9667 51.2931 16.0318 50.4768 17.5599 48.5789C19.6927 45.928 22.4031 46.3079 25.5892 44.5961C28.7744 42.8858 33.1738 38.8092 33.1738 38.8092C33.1738 38.8092 35.5425 38.3248 37.5887 39.3218C39.6356 40.3196 41.2333 41.7187 44.2948 42.2412C47.3571 42.7615 55.3493 40.9032 55.3493 40.9032C55.3493 40.9032 56.5673 42.4975 58.7171 42.5975C60.8661 42.6974 62.6424 41.5219 63.599 41.7057C64.5572 41.8888 68.2536 42.6448 69.1769 43.2024C70.0995 43.7593 69.7816 45.0515 71.9183 44.114C72.2176 43.9805 71.6569 42.9674 70.8488 42.6364Z" fill="black"/>
<path opacity="0.5" d="M61.924 24.0092L61.9216 24C61.9216 24 61.9232 24.0038 61.924 24.0092Z" fill="black"/>
<path d="M33.5534 39.5747C32.9378 40.1347 30.9311 41.9273 28.7913 43.4957C29.1718 44.4043 29.4672 45.2586 29.4726 45.7339C29.4896 47.091 27.2749 50.3704 27.2911 51.3972C27.3073 52.427 27.7551 52.8855 28.3235 53.4058C28.8926 53.926 29.4162 54.4814 29.577 53.2898C29.7379 52.099 28.7155 52.6002 28.7125 51.8908C28.7094 51.1813 29.6335 49.6366 30.372 48.7021C31.1105 47.7691 32.9603 46.1069 33.7676 44.6194C34.2556 43.7192 35.083 41.3331 35.6607 39.5862C35.2601 39.5267 34.8874 39.5068 34.578 39.5068C34.1341 39.5068 33.7699 39.545 33.5534 39.5747Z" fill="black"/>
<path d="M62.1443 42.8061C61.5442 42.9953 60.8412 43.2173 60.0579 43.3348C60.6912 43.7597 61.1691 44.1602 61.1946 44.4195C61.2758 45.2228 61.5156 45.5028 61.1946 45.8186C60.8745 46.1344 60.7067 46.1641 60.5234 46.4815C60.3394 46.7973 60.2829 47.7836 60.7593 47.8866C61.2348 47.9881 61.565 47.7585 61.7313 47.4037C61.8968 47.0475 62.7382 44.2349 62.7266 43.5377C62.7227 43.3561 62.5464 43.0769 62.2796 42.7642C62.2347 42.7779 62.1899 42.7909 62.1443 42.8061Z" fill="black"/>
</svg>
