<svg width="80" height="80" viewBox="0 0 80 80" fill="none" xmlns="http://www.w3.org/2000/svg">
<circle cx="40" cy="40" r="40" fill="white"/>
<path d="M30.6416 41.2826L34.2912 27.837L43.6367 21.7464H45.5354L55.0267 16V17.8386L46.1832 23.0102L57.5086 18.5282L61.5969 18.6434L58.8228 21.2863L47.287 24.9636L60.575 22.5507L65.5394 22.6654L61.1589 24.5041L49.3314 26.5727L61.5969 26.3432L67 27.607L61.5969 29.3309L50.4998 28.6413L59.4067 30.4804L61.8892 32.5491L58.3847 32.8938L51.3759 30.8247L58.2383 34.1577L59.4067 36.3416L52.69 36.6863L54.4423 37.9394L55.0267 40.2488L52.8359 41.2826L53.5662 43.2365L51.8139 44.0413L51.9598 45.4204H48.8202V46.9147H46.1832L47.1412 48.0638L43.1993 47.6043L47.1412 49.5572L50.2082 51.2815L61.5969 52.0858L63.2033 53.6944L61.5969 54.6145L53.5662 52.6611L62.473 55.534L63.7872 56.7979H60.1363L53.5662 54.6145L61.4511 57.6022L62.473 58.9822L60.1363 59.5556L48.1637 55.0745L44.5128 54.8445L46.9954 58.2917L44.6593 57.7174L46.1832 59.5556L38.0885 58.9822L35.1679 57.1426L34.7299 55.0745L32.539 50.3615L24.5082 46.109L26.5601 46.1417L24.5082 44.6092L27.34 44.4564L25.393 43.6135L27.2426 43.3835L25.5878 42.4639L27.8265 41.9277L25.9769 40.6248L30.6416 41.2826Z" fill="black"/>
<path d="M30.7048 39.228L20.7624 36.6848L19.4689 33.7778L17.4261 35.8546V37.4113L23.4184 39.9029L30.2954 40.8889L30.7048 39.228Z" fill="black"/>
<path d="M39.5574 60.6634L37.6828 61.7586V62.7557L37.9943 63.5023L36.4326 62.9542V61.66L35.4169 62.9047L35.9636 63.9999L34.2459 62.6057L36.1204 60.6634L37.4476 60.4443L39.5574 60.6634Z" fill="black"/>
<path d="M35.1311 60.4443L33.7842 61.0046L33.3606 62.1722L34.2778 63.111L33.7842 62.1789L35.1311 60.4443Z" fill="black"/>
<path d="M35.1311 59.5549L33.167 60.7857L32.7798 61.5088L32.1165 61.7029L32.9327 60.2934L31.5483 60.7956L31.1892 62.2221L30.7189 61.4985L31.5214 60.0202L30.4697 60.7335L30.3597 61.85L29.8196 60.8885L31.1061 59.3896H33.4855L34.2191 58.6665L35.1311 59.5549Z" fill="black"/>
<path d="M13.5141 43.0748L14.6747 42.1377H16.5434L16.6087 41.6169L18.5427 40.8887H24.3041L26.2788 42.1899L23.1843 42.5028L25.9565 43.5553L22.9266 44.011L25.7636 44.7914H23.1843L24.9901 46.222H23.1534L15.9973 44.4273H14.16L13.0001 44.9735L13.5141 43.0748ZM18.2851 42.8097C18.5501 42.8097 18.7646 42.6361 18.7646 42.4227C18.7646 42.2083 18.5495 42.0352 18.2851 42.0352C18.0195 42.0352 17.8044 42.2088 17.8044 42.4227C17.8044 42.6361 18.0201 42.8097 18.2851 42.8097Z" fill="black"/>
</svg>
