<svg width="80" height="80" viewBox="0 0 80 80" fill="none" xmlns="http://www.w3.org/2000/svg">
<circle cx="40" cy="40" r="40" fill="white"/>
<path d="M42.2709 28.0862C42.2709 28.0862 44.6454 25.7962 46.7743 25.0328C46.7743 25.0328 41.7796 18.2264 31.2169 16C31.2169 16 27.6141 18.1628 26.959 22.4247C26.959 22.4247 24.1751 22.9973 24.1751 24.4603L27.5322 25.7325C27.5322 25.7325 33.919 24.7784 34.7378 24.9692C35.5566 25.16 34.9834 27.45 34.2465 27.8317C34.2465 27.8317 34.4921 28.595 34.9834 28.9131C34.9834 28.9131 33.3458 31.5212 29.088 30.1217C29.088 30.1217 31.4625 34.0656 25.4852 35.0834C25.4852 35.0834 22.0462 34.3201 21.5549 30.7578C21.5549 30.7578 25.5671 31.0123 25.9765 31.4576C25.9765 31.4576 26.8772 30.9487 23.6019 30.5034C23.6019 30.5034 23.1106 30.1217 24.912 28.9131L23.6838 28.8495L23.3563 26.1778C23.3563 26.1778 15.8232 27.5137 13.9399 32.0301C13.9399 32.0301 9.76394 41.3809 19.0165 61.6094C19.0165 61.6094 25.1576 62.5635 29.2517 61.4185C29.2517 61.4185 29.4974 58.4924 28.9242 58.1107L26.2221 56.9021C26.2221 56.9021 31.5444 49.6504 29.9068 48.3146C29.9068 48.3146 28.351 47.1696 27.9416 46.4698C27.9416 46.4698 30.2343 47.3604 31.135 47.3604C31.135 47.3604 32.1995 44.0526 34.2465 41.699C34.2465 41.699 29.3336 57.6018 31.3806 61.991C31.3806 61.991 45.1367 65.0444 44.3998 60.528C44.3998 60.528 44.4817 58.8741 42.3528 57.4746C42.3528 57.4746 46.1193 54.1668 46.2831 53.7215C46.2831 53.7215 49.3946 52.3857 47.1019 46.9151C44.8092 41.4445 47.02 46.7879 47.02 46.7879C47.02 46.7879 62.6593 35.6559 52.5879 26.8775C52.5879 26.8775 48.5757 23.1881 42.2709 28.0862Z" fill="black"/>
<path d="M33.625 26.051H31.4499H25.6777L24.1719 25.3999C24.1719 25.3999 24.8411 27.6787 25.1757 27.8415C25.1757 27.8415 27.0162 27.9228 28.02 27.2718C28.02 27.2718 29.9441 28.7367 30.5297 28.8181C30.5297 28.8181 33.374 27.5973 33.625 26.051Z" fill="black"/>
<path d="M27.5602 27.9639L26.8788 29.0515C26.8788 29.0515 26.3109 29.673 27.5602 29.673H28.4688V28.2746C28.4688 28.2746 28.0145 27.9639 27.7873 27.9639" fill="black"/>
<path d="M26.75 27.9639L26.0134 28.8184L25.0313 28.7116C25.0313 28.7116 25.7679 28.0173 26.75 27.9639Z" fill="black"/>
<path d="M56.4148 38.2482C56.4148 38.2482 52.7543 44.1716 49.0938 46.6826L49.6632 50.417C49.6632 50.417 51.5341 50.0307 51.6968 50.1595C51.8595 50.2882 56.9029 58.1433 56.8215 58.594C56.8215 58.594 55.1133 59.1734 55.1133 59.6241L54.9506 60.9762C54.9506 60.9762 63.9799 61.6845 66.583 60.9762C66.583 60.9762 69.3487 58.5296 67.1524 53.25C67.1524 53.25 63.2478 49.7732 63.1665 48.6142C63.1665 48.6142 62.4344 46.6183 63.6545 44.1716C63.7359 44.0428 65.6068 37.7331 56.4148 38.2482Z" fill="black"/>
<path d="M49.2801 52.0263C49.2801 52.0263 49.3677 54.0688 43.9375 57.3728C43.9375 57.3728 46.3898 59.7157 45.8643 60.4366L48.3167 60.1963C48.3167 60.1963 49.9808 56.5919 49.9808 56.2314C49.9808 56.2314 48.7546 55.4505 48.5794 55.03C48.5794 55.03 52.9586 53.2277 51.2945 52.0263C50.8566 51.8461 49.2801 51.8461 49.2801 52.0263Z" fill="black"/>
</svg>
