<svg width="80" height="80" viewBox="0 0 80 80" fill="none" xmlns="http://www.w3.org/2000/svg">
  <path
     id="circle2"
     style="fill:#ffffff"
     d="M 39.923828 0 A 40 40 0 0 0 0 40 A 40 40 0 0 0 40 80 A 40 40 0 0 0 80 40 A 40 40 0 0 0 40 0 A 40 40 0 0 0 39.923828 0 z M 37.962891 25.003906 C 38.649991 25.102806 54.867678 27.451956 61.705078 30.472656 C 65.311378 32.066756 67.890044 33.761556 69.589844 35.660156 C 71.189544 37.447556 72 39.455753 72 41.626953 C 72 45.981353 68.777525 51.448616 61.703125 53.166016 C 56.337325 54.469316 51.349475 55 47.109375 55 C 42.061775 55 38.073819 54.250256 35.761719 53.160156 C 35.475219 53.024856 35.234584 52.773672 35.083984 52.451172 C 34.933384 52.128672 34.880294 51.752872 34.933594 51.388672 C 34.986794 51.024472 35.143853 50.694625 35.376953 50.453125 C 35.610053 50.211525 35.905091 50.074453 36.212891 50.064453 C 41.619091 49.893953 54.6446 49.310881 58.8125 47.613281 C 62.1881 46.238381 64.300219 44.386031 64.761719 42.394531 C 64.887119 41.849531 64.554903 41.292966 64.345703 41.009766 C 63.662503 40.087166 62.403203 39.435591 61.595703 39.587891 C 59.614503 39.959391 54.238925 40.789931 51.390625 40.894531 C 50.512625 40.926731 49.821919 40.997962 49.449219 41.039062 L 49.226562 41.0625 L 47.939453 44.189453 C 47.924253 44.226953 47.903553 44.260109 47.876953 44.287109 C 47.636053 44.529609 46.373306 45.800334 45.878906 46.302734 C 45.712306 46.422534 45.522325 46.484575 45.328125 46.484375 L 42.486328 46.484375 C 42.313928 46.484475 42.145847 46.428766 41.998047 46.322266 C 41.850147 46.215766 41.729537 46.063559 41.648438 45.880859 C 41.567337 45.698259 41.528409 45.491956 41.537109 45.285156 C 41.545909 45.078356 41.601166 44.878931 41.697266 44.707031 C 42.087566 43.988731 42.614175 43.392197 43.234375 42.966797 C 43.267375 42.628697 43.250241 42.285278 43.181641 41.955078 C 43.175141 41.920278 43.158366 41.890841 43.134766 41.869141 C 43.111266 41.847541 43.082334 41.836391 43.052734 41.837891 C 41.111034 41.924691 35.399281 41.950362 33.925781 41.914062 C 33.908281 41.913763 33.889147 41.915828 33.873047 41.923828 C 33.856947 41.931928 33.844131 41.943884 33.832031 41.958984 C 33.819931 41.974084 33.810688 41.992119 33.804688 42.011719 C 33.798587 42.031419 33.795875 42.053319 33.796875 42.074219 C 33.815775 42.446819 33.814194 42.741613 33.808594 42.945312 C 33.800494 43.223413 33.717166 43.491884 33.572266 43.708984 L 32.044922 45.998047 C 31.944222 46.149947 31.817575 46.273322 31.671875 46.357422 C 31.526075 46.441522 31.364825 46.484875 31.203125 46.484375 L 29.140625 46.484375 C 28.984025 46.484375 28.829406 46.438409 28.691406 46.349609 C 28.553406 46.260809 28.436309 46.133063 28.349609 45.976562 C 28.262809 45.819962 28.208359 45.638372 28.193359 45.451172 C 28.178359 45.263972 28.203372 45.075844 28.263672 44.902344 C 28.429872 44.387644 28.666144 43.909734 28.964844 43.490234 C 28.789944 43.258734 27.650391 41.501953 27.650391 41.501953 L 22.300781 40.841797 C 22.300781 40.841797 22.302734 40.84375 22.302734 40.84375 C 20.867834 40.62905 19.586547 40.411697 18.435547 40.216797 C 17.786547 40.107197 17.187466 40.006269 16.634766 39.917969 C 14.746066 39.616469 9.4626413 37.774966 9.2382812 37.697266 C 9.2245112 37.692666 9.2105056 37.688141 9.1972656 37.681641 C 8.8626456 37.531041 8.571365 37.267375 8.359375 36.921875 C 8.147395 36.576375 8.0245863 36.162875 8.0039062 35.734375 C 7.9832263 35.305875 8.0648575 34.880513 8.2421875 34.507812 C 8.4195175 34.135213 8.6840631 33.832819 9.0019531 33.636719 C 10.904563 32.462819 13.070069 32.615066 13.730469 32.697266 C 14.370569 32.278566 16.805222 30.688094 18.857422 29.371094 C 19.593922 27.437494 22.289725 26.708984 23.890625 26.708984 L 32.130859 26.708984 L 37.757812 25.019531 C 37.825012 25.000031 37.894291 24.994506 37.962891 25.003906 z M 20.259766 30.984375 C 20.072866 30.984375 19.893919 31.073722 19.761719 31.232422 C 19.629619 31.391222 19.554688 31.605578 19.554688 31.830078 C 19.554687 31.997478 19.596328 32.161581 19.673828 32.300781 C 19.751228 32.439981 19.861434 32.547228 19.990234 32.611328 C 20.118934 32.675428 20.259684 32.692756 20.396484 32.660156 C 20.533184 32.627456 20.659313 32.546134 20.757812 32.427734 C 20.856413 32.309334 20.923972 32.160394 20.951172 31.996094 C 20.978372 31.831894 20.963456 31.660559 20.910156 31.505859 C 20.856856 31.351259 20.766291 31.219953 20.650391 31.126953 C 20.534491 31.033953 20.399166 30.984375 20.259766 30.984375 z M 10.550781 36.722656 C 12.202481 37.279856 15.458609 38.348947 16.787109 38.560547 C 17.342309 38.648847 17.94355 38.750128 18.59375 38.861328 C 20.87415 39.248028 23.665244 39.720778 27.152344 40.080078 C 25.247144 36.465578 21.814075 36.733456 19.671875 36.910156 L 19.113281 37.951172 C 19.098781 37.977872 19.079841 38.000225 19.056641 38.015625 C 19.033541 38.031125 19.007069 38.038463 18.980469 38.039062 C 18.953969 38.039662 18.927997 38.031978 18.904297 38.017578 C 18.880697 38.003178 18.861003 37.983031 18.845703 37.957031 L 18.267578 36.976562 C 18.060978 36.976563 17.833244 36.974156 17.589844 36.972656 L 17.148438 37.947266 C 17.135637 37.975166 17.117803 38.000178 17.095703 38.017578 C 17.073503 38.035078 17.047884 38.045828 17.021484 38.048828 C 16.995084 38.051828 16.967859 38.045303 16.943359 38.033203 C 16.918859 38.021003 16.897759 38.003016 16.880859 37.978516 L 16.171875 36.945312 C 15.332675 36.924012 14.439559 36.895494 13.630859 36.871094 C 12.688959 36.840594 11.875069 36.814453 11.542969 36.814453 C 11.531569 36.814453 11.102181 36.798756 10.550781 36.722656 z M 54.791016 41.714844 C 54.823416 41.712044 54.855859 41.723147 54.880859 41.748047 C 54.905859 41.772847 54.922081 41.808956 54.925781 41.847656 L 54.974609 42.339844 C 55.011409 42.530444 55.012762 42.729322 54.976562 42.919922 C 54.940262 43.110622 54.867625 43.288906 54.765625 43.441406 L 53.0625 45.998047 C 52.9618 46.150047 52.8333 46.273322 52.6875 46.357422 C 52.5418 46.441622 52.382403 46.484975 52.220703 46.484375 L 49.501953 46.484375 C 49.243753 46.489575 48.994141 46.373456 48.806641 46.160156 C 48.686941 46.020056 48.599988 45.843591 48.554688 45.650391 C 48.509388 45.457191 48.507528 45.252994 48.548828 45.058594 C 48.630728 44.636694 48.779934 44.238619 48.990234 43.886719 C 49.200634 43.534719 49.466838 43.236013 49.773438 43.007812 C 49.758438 42.742013 49.760344 42.476538 49.777344 42.210938 C 49.778844 42.173538 49.7906 42.137928 49.8125 42.111328 C 49.8343 42.084828 49.863431 42.068606 49.894531 42.066406 C 50.597831 42.014206 53.639916 41.815844 54.791016 41.714844 z M 23.724609 42.275391 C 24.822309 42.407891 26.395163 42.599681 27.039062 42.675781 C 27.055563 42.677581 27.071338 42.682006 27.085938 42.691406 C 27.100538 42.700906 27.112647 42.714969 27.123047 42.730469 C 27.252347 42.925369 27.433509 43.191041 27.599609 43.431641 C 27.618109 43.458541 27.628406 43.492444 27.628906 43.527344 C 27.629306 43.562144 27.621316 43.595547 27.603516 43.623047 L 26.054688 46.009766 C 25.953688 46.158366 25.825941 46.277275 25.681641 46.359375 C 25.537341 46.441575 25.380403 46.484475 25.220703 46.484375 L 23.232422 46.484375 C 23.053822 46.484175 22.877762 46.424547 22.726562 46.310547 C 22.575262 46.196647 22.454753 46.032844 22.376953 45.839844 C 22.299153 45.646844 22.267709 45.43195 22.287109 45.21875 C 22.306509 45.00565 22.375628 44.803066 22.486328 44.634766 C 22.803628 44.127366 23.176903 43.673809 23.595703 43.287109 C 23.584303 43.086109 23.575837 42.744575 23.585938 42.421875 C 23.586538 42.401175 23.592209 42.381981 23.599609 42.363281 C 23.607009 42.344481 23.616006 42.328053 23.628906 42.314453 C 23.641806 42.300753 23.657428 42.289603 23.673828 42.283203 C 23.690228 42.276803 23.707409 42.273491 23.724609 42.275391 z " />
</svg>
