<svg width="80" height="80" viewBox="0 0 80 80" fill="none" xmlns="http://www.w3.org/2000/svg">
  <path
     id="circle2"
     style="fill:#ffffff"
     d="M 39.923828 0 A 40 40 0 0 0 0 40 A 40 40 0 0 0 40 80 A 40 40 0 0 0 80 40 A 40 40 0 0 0 40 0 A 40 40 0 0 0 39.923828 0 z M 61.921875 24 L 61.923828 24.009766 C 61.923028 24.004366 61.921875 24 61.921875 24 z M 61.923828 24.466797 C 62.757528 24.669697 62.739944 24.515262 63.964844 24.726562 C 65.164244 24.933262 66.709316 25.876553 67.353516 26.251953 C 67.996116 26.625653 67.087175 26.602316 68.421875 28.041016 C 69.495275 29.198216 68.955591 30.110844 68.775391 30.464844 C 68.357891 31.283344 67.746094 30.515625 67.746094 30.515625 C 67.746094 30.515625 68.543166 31.312144 67.759766 31.714844 C 66.976466 32.117644 66.985384 32.079978 65.521484 31.267578 C 64.059184 30.455878 61.248047 32.404297 61.248047 32.404297 C 61.248047 32.404297 60.952919 33.427416 60.636719 35.291016 C 60.320419 37.154616 59.583984 38.533203 59.583984 38.533203 L 61.154297 39.412109 C 62.722597 40.290909 62.312034 39.839744 64.052734 39.964844 C 65.793434 40.089944 70.040009 42.304119 70.849609 42.636719 C 71.657709 42.967719 72.217269 43.979781 71.917969 44.113281 C 69.781269 45.050781 70.100334 43.760025 69.177734 43.203125 C 68.254434 42.645525 64.557809 41.888178 63.599609 41.705078 C 62.643009 41.521278 60.865797 42.697556 58.716797 42.597656 C 56.566997 42.497656 55.349609 40.902344 55.349609 40.902344 C 55.349609 40.902344 47.357222 42.760534 44.294922 42.240234 C 41.233422 41.717734 39.634791 40.320066 37.587891 39.322266 C 35.541691 38.325266 33.173828 38.808594 33.173828 38.808594 C 33.173828 38.808594 28.775044 42.885403 25.589844 44.595703 C 22.403744 46.307503 19.693347 45.927225 17.560547 48.578125 C 16.032447 50.476025 16.966984 51.2936 17.521484 52.0625 C 17.791384 52.4363 18.2239 53.078125 17.4375 53.078125 C 16.651 53.078125 16.424691 52.606037 15.900391 52.273438 C 15.375291 51.940038 14.953178 51.4414 15.080078 50.4375 C 15.206078 49.4329 16.200903 46.062241 17.845703 44.869141 C 19.490603 43.677541 21.788963 42.791616 23.226562 42.103516 C 24.561362 41.466516 25.955837 35.158019 26.148438 34.261719 C 25.501138 34.791119 24.303878 35.753228 22.205078 37.423828 C 15.203578 42.998628 11.067614 44.113281 8.3339844 44.113281 C 5.6011044 44.113281 3.2709625 43.374341 3.2578125 42.681641 C 3.2446625 41.991341 2.3355356 41.069562 4.0097656 41.101562 C 5.6847556 41.133662 3.9724031 42.221872 8.0957031 42.138672 C 12.219013 42.057072 14.487669 41.45245 20.292969 36.40625 C 26.098169 31.36005 27.883956 31.003922 32.785156 30.732422 C 32.785156 30.732422 36.081919 30.879281 37.136719 30.925781 C 35.505019 30.859481 44.4771 32.218741 46.8125 31.619141 C 48.4248 31.204941 50.491175 29.250622 52.671875 28.482422 C 54.852675 27.714222 54.459278 28.396419 56.017578 27.699219 C 57.575778 27.003519 57.559613 26.853662 58.882812 26.164062 C 60.207413 25.471362 62.388672 25.548828 62.388672 25.548828 C 62.388672 25.548828 61.664028 24.765797 61.923828 24.466797 z M 37.136719 30.927734 C 37.142119 30.928434 37.148197 30.927734 37.154297 30.927734 C 37.606697 30.947634 37.514119 30.944434 37.136719 30.927734 z M 34.578125 39.505859 C 34.887525 39.505859 35.259556 39.526438 35.660156 39.585938 C 35.082456 41.332838 34.255578 43.718941 33.767578 44.619141 C 32.960278 46.106641 31.109594 47.768172 30.371094 48.701172 C 29.632594 49.635672 28.709791 51.181125 28.712891 51.890625 C 28.715891 52.600025 29.737072 52.098262 29.576172 53.289062 C 29.415372 54.480663 28.893319 53.92645 28.324219 53.40625 C 27.755819 52.88595 27.307216 52.426284 27.291016 51.396484 C 27.274816 50.369684 29.489656 47.091475 29.472656 45.734375 C 29.467256 45.259075 29.171516 44.404694 28.791016 43.496094 C 30.930816 41.927694 32.937134 40.134219 33.552734 39.574219 C 33.769234 39.544519 34.134225 39.505859 34.578125 39.505859 z M 62.279297 42.763672 C 62.546097 43.076372 62.722663 43.355509 62.726562 43.537109 C 62.738162 44.234309 61.895969 47.048097 61.730469 47.404297 C 61.564169 47.759097 61.235266 47.988219 60.759766 47.886719 C 60.283366 47.783719 60.339437 46.798222 60.523438 46.482422 C 60.706737 46.165022 60.875212 46.134159 61.195312 45.818359 C 61.516312 45.502559 61.276512 45.223222 61.195312 44.419922 C 61.169813 44.160622 60.691894 43.758884 60.058594 43.333984 C 60.841894 43.216484 61.544431 42.995841 62.144531 42.806641 C 62.190131 42.791441 62.234397 42.777372 62.279297 42.763672 z " />
</svg>
