<svg width="80" height="80" viewBox="0 0 80 80" fill="none" xmlns="http://www.w3.org/2000/svg">
  <path
     id="circle22"
     style="fill:#ffffff"
     d="M 39.923828 0 A 40 40 0 0 0 0 40 A 40 40 0 0 0 40 80 A 40 40 0 0 0 80 40 A 40 40 0 0 0 40 0 A 40 40 0 0 0 39.923828 0 z M 55.027344 16 L 55.027344 17.837891 L 46.183594 23.009766 L 57.507812 18.527344 L 61.597656 18.642578 L 58.822266 21.287109 L 47.287109 24.962891 L 60.574219 22.550781 L 65.539062 22.666016 L 61.158203 24.503906 L 49.332031 26.572266 L 61.597656 26.34375 L 67 27.607422 L 61.597656 29.330078 L 50.5 28.640625 L 59.40625 30.480469 L 61.888672 32.548828 L 58.384766 32.894531 L 51.375 30.824219 L 58.238281 34.158203 L 59.40625 36.341797 L 52.689453 36.685547 L 54.441406 37.939453 L 55.027344 40.248047 L 52.835938 41.283203 L 53.566406 43.236328 L 51.814453 44.041016 L 51.958984 45.419922 L 48.820312 45.419922 L 48.820312 46.914062 L 46.183594 46.914062 L 47.140625 48.064453 L 43.199219 47.603516 L 47.140625 49.556641 L 50.208984 51.28125 L 61.597656 52.085938 L 63.203125 53.695312 L 61.597656 54.615234 L 53.566406 52.660156 L 62.472656 55.533203 L 63.787109 56.798828 L 60.136719 56.798828 L 53.566406 54.615234 L 61.451172 57.601562 L 62.472656 58.982422 L 60.136719 59.554688 L 48.164062 55.074219 L 44.513672 54.84375 L 46.996094 58.291016 L 44.660156 57.716797 L 46.183594 59.554688 L 38.087891 58.982422 L 35.167969 57.142578 L 34.730469 55.074219 L 32.539062 50.361328 L 24.722656 46.222656 L 23.154297 46.222656 L 15.998047 44.427734 L 14.160156 44.427734 L 13 44.972656 L 13.513672 43.074219 L 14.673828 42.138672 L 16.542969 42.138672 L 16.609375 41.617188 L 18.542969 40.888672 L 24.304688 40.888672 L 26.279297 42.189453 L 23.183594 42.501953 L 25.933594 43.544922 L 27.242188 43.382812 L 25.587891 42.464844 L 27.826172 41.927734 L 25.976562 40.625 L 30.640625 41.283203 L 34.291016 27.837891 L 43.636719 21.746094 L 45.535156 21.746094 L 55.027344 16 z M 25.933594 43.544922 L 25.392578 43.613281 L 25.4375 43.632812 L 25.957031 43.554688 L 25.933594 43.544922 z M 25.4375 43.632812 L 22.925781 44.011719 L 25.003906 44.582031 L 27.339844 44.457031 L 25.4375 43.632812 z M 25.003906 44.582031 L 24.507812 44.609375 L 24.751953 44.791016 L 25.763672 44.791016 L 25.003906 44.582031 z M 24.751953 44.791016 L 23.183594 44.791016 L 24.853516 46.115234 L 26.560547 46.142578 L 24.751953 44.791016 z M 24.853516 46.115234 L 24.507812 46.109375 L 24.722656 46.222656 L 24.990234 46.222656 L 24.853516 46.115234 z M 19.46875 33.777344 L 20.761719 36.685547 L 30.705078 39.228516 L 30.294922 40.888672 L 23.417969 39.902344 L 17.425781 37.412109 L 17.425781 35.855469 L 19.46875 33.777344 z M 18.285156 42.035156 C 18.019556 42.035156 17.804688 42.207975 17.804688 42.421875 C 17.804688 42.635275 18.020156 42.810547 18.285156 42.810547 C 18.550156 42.810547 18.763672 42.635275 18.763672 42.421875 C 18.763672 42.207475 18.549556 42.035156 18.285156 42.035156 z M 34.21875 58.666016 L 35.130859 59.554688 L 33.167969 60.785156 L 32.779297 61.509766 L 32.117188 61.703125 L 32.933594 60.292969 L 31.548828 60.794922 L 31.189453 62.222656 L 30.71875 61.498047 L 31.521484 60.019531 L 30.46875 60.734375 L 30.359375 61.849609 L 29.820312 60.888672 L 31.105469 59.388672 L 33.486328 59.388672 L 34.21875 58.666016 z M 35.130859 60.443359 L 33.785156 62.179688 L 34.277344 63.111328 L 33.361328 62.171875 L 33.785156 61.003906 L 35.130859 60.443359 z M 37.447266 60.443359 L 39.556641 60.664062 L 37.683594 61.757812 L 37.683594 62.755859 L 37.994141 63.501953 L 36.431641 62.955078 L 36.431641 61.660156 L 35.416016 62.904297 L 35.962891 64 L 34.246094 62.605469 L 36.121094 60.664062 L 37.447266 60.443359 z " />
</svg>
