<svg width="80" height="80" viewBox="0 0 80 80" fill="none" xmlns="http://www.w3.org/2000/svg">
  <path
     id="circle44"
     style="fill:#ffffff"
     d="M 39.923828 0 A 40 40 0 0 0 0 40 A 40 40 0 0 0 40 80 A 40 40 0 0 0 80 40 A 40 40 0 0 0 40 0 A 40 40 0 0 0 39.923828 0 z M 31.216797 16 C 41.779497 18.2264 46.773438 25.033203 46.773438 25.033203 C 44.644537 25.796603 42.271484 28.085938 42.271484 28.085938 C 48.576284 23.187838 52.587891 26.876953 52.587891 26.876953 C 62.618432 35.61974 47.166717 46.681749 47.041016 46.771484 C 47.108958 46.933447 47.023424 46.729571 47.101562 46.916016 C 49.394263 52.386616 46.283203 53.720703 46.283203 53.720703 C 46.119403 54.166003 42.353516 57.474609 42.353516 57.474609 C 44.482416 58.874109 44.400391 60.527344 44.400391 60.527344 C 45.137291 65.043744 31.380859 61.990234 31.380859 61.990234 C 29.333859 57.601034 34.246094 41.699219 34.246094 41.699219 C 32.199094 44.052819 31.134766 47.361328 31.134766 47.361328 C 30.234066 47.361328 27.941406 46.470703 27.941406 46.470703 C 28.350806 47.170503 29.90625 48.314453 29.90625 48.314453 C 31.54385 49.650253 26.222656 56.902344 26.222656 56.902344 L 28.923828 58.111328 C 29.497028 58.493028 29.251953 61.417969 29.251953 61.417969 C 25.157853 62.562969 19.015625 61.609375 19.015625 61.609375 C 9.763065 41.380875 13.939453 32.029297 13.939453 32.029297 C 15.822753 27.512897 23.355469 26.177734 23.355469 26.177734 L 23.683594 28.849609 L 24.912109 28.914062 C 23.110709 30.122663 23.601562 30.503906 23.601562 30.503906 C 26.876862 30.949206 25.976562 31.457031 25.976562 31.457031 C 25.567162 31.011731 21.554688 30.757812 21.554688 30.757812 C 22.045987 34.320112 25.484375 35.083984 25.484375 35.083984 C 31.461675 34.066184 29.087891 30.121094 29.087891 30.121094 C 33.345691 31.520594 34.984375 28.914062 34.984375 28.914062 C 34.493075 28.595963 34.246094 27.832031 34.246094 27.832031 C 34.982994 27.450331 35.557081 25.15955 34.738281 24.96875 C 33.919481 24.77795 27.53125 25.732422 27.53125 25.732422 L 24.175781 24.460938 C 24.175781 22.997938 26.958984 22.423828 26.958984 22.423828 C 27.614084 18.161928 31.216797 16 31.216797 16 z M 24.171875 25.400391 L 25.677734 26.050781 L 31.449219 26.050781 L 33.625 26.050781 C 33.374 27.597081 30.529297 28.818359 30.529297 28.818359 C 29.943697 28.736959 28.019531 27.271484 28.019531 27.271484 C 27.015731 27.922484 25.175781 27.841797 25.175781 27.841797 C 24.841181 27.678997 24.171875 25.400391 24.171875 25.400391 z M 26.75 27.964844 L 26.013672 28.818359 L 25.03125 28.710938 C 25.03125 28.710938 25.7679 28.018244 26.75 27.964844 z M 27.560547 27.964844 L 27.787109 27.964844 C 28.014309 27.964844 28.46875 28.275391 28.46875 28.275391 L 28.46875 29.673828 L 27.560547 29.673828 C 26.311247 29.673828 26.878906 29.050781 26.878906 29.050781 L 27.560547 27.964844 z M 58.011719 38.228516 C 65.379852 38.497762 63.730609 44.051125 63.654297 44.171875 C 62.434197 46.618575 63.166016 48.613281 63.166016 48.613281 C 63.247316 49.772281 67.152344 53.25 67.152344 53.25 C 69.348644 58.5296 66.582031 60.976562 66.582031 60.976562 C 63.978931 61.684863 54.951172 60.976562 54.951172 60.976562 L 55.113281 59.625 C 55.113281 59.1743 56.822266 58.59375 56.822266 58.59375 C 56.903666 58.14305 51.859966 50.288856 51.697266 50.160156 C 51.534566 50.031356 49.664062 50.417969 49.664062 50.417969 L 49.09375 46.681641 C 52.75425 44.170641 56.414062 38.248047 56.414062 38.248047 C 56.988563 38.215853 57.52051 38.210566 58.011719 38.228516 z M 50.123047 51.890625 C 50.571909 51.890625 51.075972 51.935291 51.294922 52.025391 C 52.959022 53.226791 48.580078 55.029297 48.580078 55.029297 C 48.755278 55.449797 49.980469 56.230469 49.980469 56.230469 C 49.980469 56.590969 48.316406 60.197266 48.316406 60.197266 L 45.865234 60.4375 C 46.390734 59.7166 43.9375 57.373047 43.9375 57.373047 C 49.3677 54.069047 49.279297 52.025391 49.279297 52.025391 C 49.279297 51.935291 49.674184 51.890625 50.123047 51.890625 z " />
</svg>
