<svg width="80" height="80" viewBox="0 0 80 80" fill="none" xmlns="http://www.w3.org/2000/svg">
  <path
     id="circle66"
     style="fill:#ffffff"
     d="M 39.923828 0 A 40 40 0 0 0 0 40 A 40 40 0 0 0 40 80 A 40 40 0 0 0 80 40 A 40 40 0 0 0 40 0 A 40 40 0 0 0 39.923828 0 z M 52.240234 19.019531 C 54.239368 18.940419 56.290228 19.084706 58.330078 19.605469 C 62.628278 20.702969 65.152472 23.680375 66.513672 25.984375 C 68.070472 28.619275 69 31.931003 69 34.845703 C 69 40.648403 67.0936 46.093203 64.75 50.533203 C 64.7388 50.558403 64.727091 50.582369 64.712891 50.605469 C 62.151191 55.435869 59.077337 59.068503 57.398438 60.658203 C 57.164238 60.879203 56.873366 60.9996 56.572266 61 L 51.480469 61 C 51.206069 60.9999 50.939897 60.899391 50.716797 60.712891 C 50.493697 60.526491 50.324728 60.264038 50.236328 59.960938 C 50.147828 59.657737 50.143456 59.328084 50.222656 59.021484 C 50.301856 58.714784 50.462487 58.4455 50.679688 58.25 C 50.838487 58.1073 51.009906 57.985819 51.191406 57.886719 C 50.981206 56.565819 50.40425 52.903753 49.96875 49.689453 C 47.04445 50.320053 42.031806 50.630272 34.691406 50.638672 C 32.795206 54.537272 29.798856 58.834753 28.597656 60.501953 C 28.485156 60.658353 28.3462 60.782941 28.1875 60.869141 C 28.0289 60.955341 27.854688 61.0002 27.679688 61 L 22.248047 61 C 21.995847 61.0023 21.749822 60.910181 21.544922 60.738281 C 21.340122 60.566481 21.187875 60.324622 21.109375 60.044922 C 21.026675 59.770722 21.020097 59.471659 21.091797 59.193359 C 21.163597 58.915059 21.309212 58.671394 21.507812 58.496094 C 21.774712 58.259294 22.075031 58.077584 22.394531 57.958984 C 22.302031 56.330584 22.007212 51.174825 21.882812 49.265625 C 21.784512 47.754525 21.25775 46.173853 20.59375 44.876953 C 20.58955 44.868253 20.585931 44.860562 20.582031 44.851562 C 20.229031 44.149763 19.801247 43.502028 19.310547 42.923828 C 18.656447 42.179128 17.811969 41.512541 16.917969 40.806641 C 15.296169 39.526241 13.458875 38.073081 12.296875 35.738281 C 12.122175 35.396281 11.981153 35.033497 11.876953 34.654297 C 11.753753 34.653197 11.631731 34.6218 11.519531 34.5625 C 11.407231 34.5033 11.306709 34.417647 11.224609 34.310547 C 11.142509 34.203347 11.080869 34.076253 11.042969 33.939453 C 11.004969 33.802653 10.991206 33.658625 11.003906 33.515625 C 11.016606 33.372625 11.055988 33.234075 11.117188 33.109375 C 11.178387 32.984575 11.260175 32.876216 11.359375 32.791016 C 11.458575 32.705816 11.573159 32.646234 11.693359 32.615234 C 11.813659 32.584134 11.937894 32.582928 12.058594 32.611328 C 12.060594 32.611728 12.062653 32.611328 12.064453 32.611328 C 12.169953 32.433428 12.294147 32.272712 12.435547 32.132812 C 13.012947 31.556512 13.590337 30.13 14.148438 28.75 C 14.696537 27.3949 15.263541 25.992969 15.931641 25.105469 C 16.709841 24.071769 17.991388 22.758056 19.304688 22.097656 C 19.118888 21.010556 19.512431 20.048534 20.332031 19.615234 C 20.582131 19.472034 20.856166 19.395878 21.134766 19.392578 C 21.413266 19.389378 21.688906 19.458303 21.941406 19.595703 C 22.537306 19.925503 23.015209 20.639619 23.224609 21.511719 C 23.224609 21.511719 27.062316 21.577584 28.728516 21.646484 C 29.117616 21.662484 29.520994 21.679613 29.933594 21.695312 L 29.935547 21.695312 C 32.572747 21.795112 35.639269 21.852584 38.542969 21.458984 C 39.837869 21.283284 41.350772 20.928834 42.951172 20.552734 C 45.718984 19.902297 48.908345 19.151385 52.240234 19.019531 z M 54.175781 20.222656 C 50.25015 20.063694 46.404647 20.968547 43.154297 21.732422 C 41.532297 22.114222 39.999409 22.47505 38.662109 22.65625 C 37.677709 22.78975 36.679447 22.870469 35.685547 22.917969 C 36.034547 23.676869 36.452925 24.534488 36.890625 25.429688 C 38.780325 29.295488 41.132694 34.107488 41.308594 37.679688 C 41.464694 40.850488 41.042944 43.669684 40.089844 45.833984 C 39.405444 47.389184 38.468169 48.584969 37.292969 49.417969 C 43.196269 49.345969 47.3151 49.042647 49.8125 48.498047 C 49.5916 46.774347 49.435547 45.304597 49.435547 44.591797 C 49.435547 44.432097 49.489238 44.278916 49.585938 44.166016 C 49.682638 44.053116 49.814372 43.990234 49.951172 43.990234 C 50.087972 43.990234 50.219706 44.053116 50.316406 44.166016 C 50.413206 44.278916 50.466797 44.432097 50.466797 44.591797 C 50.466797 45.205597 50.596809 46.462456 50.787109 47.972656 C 54.789909 45.234256 59.561837 46.076656 60.523438 46.285156 C 62.557838 46.726956 63.794119 47.885522 64.386719 48.919922 C 66.405019 44.840222 67.96875 39.984103 67.96875 34.845703 C 67.96875 30.381303 65.292075 22.61575 58.109375 20.78125 C 56.802375 20.447475 55.484325 20.275644 54.175781 20.222656 z M 22.783203 22.613281 C 22.770403 22.691181 22.749856 22.767144 22.722656 22.839844 C 22.333156 23.852044 20.782359 24.015897 20.130859 22.904297 C 20.044959 23.012197 19.939366 23.095391 19.822266 23.150391 C 18.630466 23.708291 17.399531 24.982244 16.707031 25.902344 C 16.134731 26.662144 15.599431 27.983972 15.082031 29.263672 C 14.449731 30.827372 13.853122 32.304628 13.107422 33.048828 C 12.791722 33.363728 12.554253 33.858466 13.189453 35.134766 C 14.232953 37.231466 15.891494 38.541294 17.496094 39.808594 C 18.429294 40.545494 19.31105 41.240547 20.03125 42.060547 C 20.49525 42.602647 20.908119 43.202056 21.261719 43.847656 C 24.340819 42.522356 27.230847 39.272759 28.873047 35.255859 C 30.523547 31.218459 30.761688 26.841366 29.554688 22.884766 C 29.261687 22.873266 28.972006 22.863163 28.691406 22.851562 C 27.036206 22.782763 24.423203 22.862281 22.783203 22.613281 z M 17.048828 28.003906 C 17.3125 28.018397 17.593941 28.077884 17.892578 28.193359 C 21.668778 29.651959 21.934753 33.736534 19.064453 33.990234 C 17.257853 34.150334 16.466166 32.221372 15.634766 31.388672 C 14.304328 30.055434 15.203128 27.902468 17.048828 28.003906 z M 16.880859 29.253906 C 16.811122 29.246931 16.741375 29.251625 16.671875 29.265625 C 16.532875 29.293725 16.404888 29.363244 16.304688 29.464844 C 16.204488 29.566444 16.136975 29.695038 16.109375 29.835938 C 16.081675 29.976838 16.094237 30.123159 16.148438 30.255859 C 16.202737 30.388659 16.296263 30.502231 16.414062 30.582031 C 16.531863 30.661931 16.668847 30.705078 16.810547 30.705078 C 17.000447 30.704978 17.184059 30.628388 17.318359 30.492188 C 17.452759 30.355888 17.527344 30.171216 17.527344 29.978516 C 17.527344 29.834916 17.48495 29.693719 17.40625 29.574219 C 17.32755 29.454819 17.216838 29.361641 17.085938 29.306641 C 17.020488 29.279141 16.950597 29.260881 16.880859 29.253906 z M 67.363281 47 C 67.386381 47.0007 67.409134 47.009491 67.427734 47.025391 C 67.446334 47.041291 67.46115 47.064544 67.46875 47.089844 C 68.67585 51.054544 68.9425 57.021944 69 59.714844 C 69.0034 59.882244 68.978381 60.047425 68.925781 60.203125 C 68.873181 60.358925 68.793659 60.501394 68.693359 60.621094 C 68.592959 60.740894 68.474097 60.837344 68.341797 60.902344 C 68.209397 60.967344 68.067428 60.9999 67.923828 61 L 62.107422 61 C 61.928422 60.9963 61.753056 60.939438 61.597656 60.835938 C 61.442256 60.732337 61.310297 60.586103 61.216797 60.408203 C 61.111697 60.221203 61.049856 60.006103 61.035156 59.783203 C 61.020456 59.560303 61.053513 59.336312 61.132812 59.132812 C 61.206713 58.948613 61.301462 58.776494 61.414062 58.621094 L 61.03125 58.150391 C 61.01165 58.126591 61.0005 58.0955 61 58.0625 C 60.9995 58.0294 61.010397 57.997356 61.029297 57.972656 C 63.245197 55.031856 65.161187 51.802409 66.742188 48.349609 C 66.931187 47.937309 67.103359 47.514331 67.255859 47.082031 C 67.264659 47.057131 67.279428 47.036084 67.298828 47.021484 C 67.318128 47.006884 67.340281 46.9992 67.363281 47 z M 40.138672 51 C 40.165172 50.9996 40.189937 51.01125 40.210938 51.03125 C 40.231837 51.05125 40.247606 51.079528 40.253906 51.111328 C 40.522806 52.571928 40.707394 54.054075 40.808594 55.546875 C 40.930794 57.158575 40.9812 58.643844 41 59.589844 C 41.0036 59.773444 40.978128 59.956053 40.923828 60.126953 C 40.869528 60.297853 40.787294 60.452484 40.683594 60.583984 C 40.579894 60.715484 40.455259 60.821178 40.318359 60.892578 C 40.181559 60.963978 40.035219 60.9999 39.886719 61 L 34.271484 61 C 34.073784 61.0003 33.879684 60.9359 33.708984 60.8125 C 33.538384 60.6891 33.397581 60.511928 33.300781 60.298828 C 33.203981 60.085628 33.154603 59.844009 33.158203 59.599609 C 33.161803 59.355209 33.217312 59.116903 33.320312 58.908203 C 33.325012 58.898103 33.331238 58.887153 33.335938 58.876953 L 33.349609 58.851562 L 32.029297 57.021484 C 32.011497 56.996984 32.0015 56.964541 32 56.931641 C 31.9985 56.898741 32.005984 56.866644 32.021484 56.839844 C 32.966484 55.216144 34.397191 52.722041 35.212891 51.119141 C 35.223091 51.098641 35.238759 51.082013 35.255859 51.070312 C 35.272859 51.058613 35.291047 51.052634 35.310547 51.052734 C 36.579447 51.046534 39.573372 51.0074 40.138672 51 z " />
</svg>
