<svg width="80" height="80" viewBox="0 0 80 80" fill="none" xmlns="http://www.w3.org/2000/svg">
  <path
     id="path3837"
     style="fill:#ffffff"
     d="M 43.427734 14.871094 C 43.060369 14.978063 42.705944 15.205578 42.394531 15.501953 C 41.771706 16.094703 41.31925 16.966506 41.28125 17.722656 L 41.994141 18.537109 L 40 21.421875 L 38.003906 18.537109 L 38.669922 17.765625 C 38.633022 17.035275 38.223659 16.215106 37.646484 15.628906 C 37.357897 15.335806 37.027509 15.101759 36.679688 14.966797 C 36.331866 14.831834 35.967828 14.795816 35.611328 14.900391 C 35.198228 15.021366 34.872139 15.453817 34.681641 16.054688 C 34.491142 16.655558 34.436047 17.424194 34.564453 18.21875 C 34.692859 19.013306 35.005214 19.833123 35.548828 20.535156 C 36.092442 21.237189 36.86675 21.821231 37.921875 22.144531 C 37.391362 22.568806 36.891306 23.146363 36.421875 23.845703 C 35.952444 24.545044 35.514276 25.366988 35.107422 26.28125 C 34.293714 28.109773 33.605213 30.307422 33.050781 32.634766 C 32.49635 34.962109 32.076164 37.418661 31.792969 39.763672 C 31.509773 42.108683 31.365234 44.343084 31.365234 46.224609 C 31.365234 48.397159 31.605983 50.467072 32.042969 52.349609 C 32.479955 54.232147 33.113163 55.925834 33.894531 57.349609 C 34.6759 58.773384 35.605523 59.926394 36.638672 60.722656 C 37.155246 61.120787 37.69761 61.429059 38.259766 61.638672 C 38.821922 61.848284 39.403838 61.958984 40 61.958984 C 40.596162 61.958984 41.178078 61.848284 41.740234 61.638672 C 42.30239 61.429059 42.844754 61.120787 43.361328 60.722656 C 44.394477 59.926394 45.3241 58.773384 46.105469 57.349609 C 46.886837 55.925834 47.520045 54.232147 47.957031 52.349609 C 48.394017 50.467072 48.634766 48.397159 48.634766 46.224609 C 48.634766 44.340684 48.494284 42.102278 48.214844 39.753906 C 47.935403 37.405534 47.518113 34.946925 46.96875 32.617188 C 46.419387 30.28745 45.7375 28.087788 44.927734 26.259766 C 44.522852 25.345755 44.085386 24.524176 43.617188 23.826172 C 43.148989 23.128168 42.649466 22.552472 42.119141 22.130859 C 43.131116 21.811634 43.883477 21.251587 44.417969 20.578125 C 44.952461 19.904663 45.268391 19.119359 45.412109 18.349609 C 45.555828 17.579859 45.527533 16.824884 45.367188 16.216797 C 45.206842 15.608709 44.914809 15.147459 44.537109 14.958984 C 44.173959 14.777509 43.7951 14.764125 43.427734 14.871094 z M 36.394531 15.78125 C 36.644581 15.78125 36.871194 15.8829 37.035156 16.046875 C 37.199119 16.21085 37.300781 16.4374 37.300781 16.6875 C 37.300781 16.9383 37.199119 17.165953 37.035156 17.330078 C 36.871194 17.494203 36.644581 17.595703 36.394531 17.595703 C 36.143681 17.595703 35.916091 17.494203 35.751953 17.330078 C 35.587816 17.165953 35.486328 16.9383 35.486328 16.6875 C 35.486328 16.4374 35.587816 16.21085 35.751953 16.046875 C 35.916091 15.8829 36.143681 15.78125 36.394531 15.78125 z M 43.605469 15.78125 C 43.855919 15.78125 44.083984 15.8829 44.248047 16.046875 C 44.412109 16.21085 44.511719 16.4374 44.511719 16.6875 C 44.511719 16.9383 44.412109 17.165953 44.248047 17.330078 C 44.083984 17.494203 43.855919 17.595703 43.605469 17.595703 C 43.355019 17.595703 43.128881 17.494203 42.964844 17.330078 C 42.800806 17.165953 42.699219 16.9383 42.699219 16.6875 C 42.699219 16.4374 42.800806 16.21085 42.964844 16.046875 C 43.128881 15.8829 43.355019 15.78125 43.605469 15.78125 z " />
  <path
     id="path3833"
     style="fill:#ffffff"
     d="M 39.923828 0 A 40 40 0 0 0 0 40 A 40 40 0 0 0 40 80 A 40 40 0 0 0 80 40 A 40 40 0 0 0 40 0 A 40 40 0 0 0 39.923828 0 z M 40 11 C 40.830388 11 41.660965 11.112113 42.439453 11.335938 C 43.217941 11.559762 43.943616 11.8961 44.566406 12.34375 C 45.189197 12.7914 45.708971 13.350009 46.072266 14.021484 C 46.43556 14.692959 46.642578 15.475794 46.642578 16.371094 C 46.642578 17.723344 46.439866 18.96935 46.259766 20.164062 C 46.079666 21.358775 45.922078 22.50245 46.017578 23.65625 C 46.082878 24.44635 47.338562 26.595909 48.890625 29.021484 C 50.442688 31.447059 52.291819 34.149269 53.542969 36.042969 C 54.058244 36.822544 54.495291 37.701134 54.851562 38.640625 C 55.207834 39.580116 55.484119 40.5796 55.675781 41.601562 C 55.867444 42.623525 55.974647 43.668322 55.996094 44.695312 C 56.017541 45.722303 55.953203 46.732925 55.798828 47.6875 C 55.723603 48.15485 55.602631 48.443094 55.458984 48.59375 C 55.315337 48.744406 55.1484 48.756219 54.976562 48.667969 C 54.632888 48.491469 54.273644 47.9154 54.058594 47.25 C 53.274394 44.82555 52.907275 43.225269 52.3125 41.753906 C 52.015113 41.018225 51.659997 40.315336 51.167969 39.556641 C 50.675941 38.797945 50.047219 37.985197 49.199219 37.029297 L 51.601562 46.064453 C 51.982588 47.496528 52.271827 49.135119 52.408203 50.84375 C 52.54458 52.552381 52.528447 54.332909 52.298828 56.052734 C 52.069209 57.772559 51.627117 59.430828 50.910156 60.896484 C 50.551676 61.629312 50.124162 62.314063 49.621094 62.933594 C 49.118025 63.553124 48.537825 64.107016 47.875 64.580078 L 48.150391 65.701172 L 50.394531 66.617188 C 51.068831 66.891638 51.453913 67.086588 51.492188 67.226562 C 51.530462 67.366537 51.220813 67.452256 50.507812 67.503906 L 49.099609 67.494141 L 49.292969 68.375 C 49.484069 69.23405 49.4225 69.536672 49.148438 69.498047 C 48.874375 69.459422 48.387059 69.078356 47.724609 68.566406 L 46.978516 67.988281 L 45.990234 67.962891 C 45.338484 67.944841 44.706881 67.997566 44.332031 67.931641 C 44.144606 67.898678 44.021475 67.835428 43.992188 67.71875 C 43.9629 67.602072 44.028672 67.431819 44.216797 67.183594 L 44.9375 66.232422 L 44.9375 64.697266 L 35.0625 64.697266 L 35.0625 66.232422 L 35.783203 67.183594 C 35.971328 67.431819 36.0371 67.602072 36.007812 67.71875 C 35.978525 67.835428 35.855394 67.898678 35.667969 67.931641 C 35.293119 67.997566 34.661516 67.944841 34.009766 67.962891 L 33.021484 67.988281 L 32.275391 68.566406 C 31.612941 69.078356 31.125625 69.459422 30.851562 69.498047 C 30.5775 69.536672 30.515931 69.23405 30.707031 68.375 L 30.900391 67.494141 L 29.492188 67.503906 C 28.779187 67.452256 28.469538 67.366538 28.507812 67.226562 C 28.546087 67.086587 28.931169 66.891638 29.605469 66.617188 L 31.849609 65.701172 L 32.125 64.580078 C 31.462175 64.107016 30.881975 63.553124 30.378906 62.933594 C 29.875838 62.314063 29.448324 61.629312 29.089844 60.896484 C 28.372883 59.430828 27.930791 57.772559 27.701172 56.052734 C 27.471553 54.332909 27.45542 52.552381 27.591797 50.84375 C 27.728173 49.135119 28.017412 47.496528 28.398438 46.064453 L 30.800781 37.029297 C 29.952781 37.985197 29.324059 38.797945 28.832031 39.556641 C 28.340003 40.315336 27.984887 41.018225 27.6875 41.753906 C 27.092725 43.225269 26.725606 44.82555 25.941406 47.25 C 25.726356 47.9154 25.367112 48.491469 25.023438 48.667969 C 24.8516 48.756219 24.684662 48.744406 24.541016 48.59375 C 24.397369 48.443094 24.276397 48.15485 24.201172 47.6875 C 24.046797 46.732925 23.982459 45.722303 24.003906 44.695312 C 24.025353 43.668322 24.132556 42.623525 24.324219 41.601562 C 24.515881 40.5796 24.792166 39.580116 25.148438 38.640625 C 25.504709 37.701134 25.941756 36.822544 26.457031 36.042969 C 27.708181 34.149269 29.557312 31.447059 31.109375 29.021484 C 32.661437 26.595909 33.917122 24.44635 33.982422 23.65625 C 34.077922 22.50245 33.920334 21.358775 33.740234 20.164062 C 33.560134 18.96935 33.357422 17.723344 33.357422 16.371094 C 33.357422 15.475794 33.56444 14.692959 33.927734 14.021484 C 34.291029 13.350009 34.810803 12.7914 35.433594 12.34375 C 36.056384 11.8961 36.782059 11.559762 37.560547 11.335938 C 38.339035 11.112113 39.169612 11 40 11 z " />
</svg>
