<svg width="80" height="80" viewBox="0 0 80 80" fill="none" xmlns="http://www.w3.org/2000/svg">
  <path
     id="circle4"
     style="fill:#ffffff;fill-opacity:1;stroke:none;stroke-width:1.01639;stroke-opacity:1"
     d="M 39.880859 8.9882812 A 31 31 0 0 0 8.8828125 39.988281 A 31 31 0 0 0 39.882812 70.988281 A 31 31 0 0 0 70.882812 39.988281 A 31 31 0 0 0 39.882812 8.9882812 A 31 31 0 0 1 39.880859 8.9882812 z M 40.798828 31.300781 L 40.792969 45.896484 L 43.863281 42.740234 L 44.982422 43.898438 L 40.009766 49.015625 L 35.019531 43.900391 L 36.126953 42.75 L 39 45.6875 L 39.103516 34.660156 C 39.103278 34.657491 39.101717 34.65502 39.101562 34.652344 C 39.082709 34.326019 39.096719 34.000121 39.113281 33.673828 L 39.134766 31.306641 C 39.111176 31.9429 39.164516 32.582779 39.134766 33.21875 C 39.127697 33.369822 39.120983 33.522099 39.113281 33.673828 L 39.103516 34.660156 C 39.109294 34.724869 39.138525 34.786603 39.142578 34.851562 C 39.160908 35.145555 39.167311 35.44016 39.181641 35.734375 C 39.192361 35.954469 39.196811 36.176651 39.181641 36.396484 C 39.156551 36.760095 39.124768 36.42274 39.148438 36.824219 C 39.171446 37.214291 39.186018 37.604122 39.203125 37.994141 L 39.205078 31.304688 L 40.798828 31.300781 z M 39.203125 37.994141 L 39.201172 43.220703 C 39.25498 42.871881 39.313381 42.521856 39.339844 42.175781 C 39.356144 41.962617 39.339844 41.748942 39.339844 41.535156 C 39.339844 41.188825 39.356914 40.837941 39.339844 40.492188 C 39.316825 40.025999 39.23989 39.560389 39.21875 39.09375 C 39.20749 38.845139 39.23259 38.596137 39.21875 38.347656 C 39.212188 38.229851 39.208294 38.111979 39.203125 37.994141 z M 39.201172 43.220703 C 39.177427 43.374634 39.164105 43.530158 39.138672 43.681641 C 39.120532 43.789701 39.075659 43.894577 39.068359 44.003906 C 39.051839 44.2512 39.077059 44.498402 39.068359 44.746094 C 39.063059 44.8974 39.033451 45.048035 39.025391 45.199219 C 39.023518 45.234171 39.032289 45.480686 39.037109 45.726562 L 39.199219 45.892578 L 39.201172 43.220703 z M 39.037109 45.726562 L 39 45.6875 L 38.994141 46.246094 C 39.004941 46.253054 39.019691 46.279098 39.025391 46.267578 C 39.042872 46.232171 39.042072 45.979721 39.037109 45.726562 z M 40.783203 31.314453 L 40.785156 45.863281 L 40.783203 31.314453 z " />
  <path
     id="circle2"
     style="fill:#ffffff;stroke:none;stroke-width:2.05128;stroke-opacity:1"
     d="M 40,0 A 40,40 0 0 0 0,40 40,40 0 0 0 40,80 40,40 0 0 0 80,40 40,40 0 0 0 40,0 Z m -0.0021,8.2051282 a 31.794872,31.794872 0 0 1 0.0021,0 A 31.794872,31.794872 0 0 1 71.794872,40 31.794872,31.794872 0 0 1 40,71.794872 31.794872,31.794872 0 0 1 8.2051282,40 31.794872,31.794872 0 0 1 39.997997,8.2051282 Z" />
  <defs
     id="defs13">
    <linearGradient
       id="paint0_linear"
       x1="-3.5443"
       y1="11.8519"
       x2="92.9047"
       y2="54.7202"
       gradientUnits="userSpaceOnUse">
      <stop
         stop-color="#F9804B"
         id="stop8" />
      <stop
         offset="1"
         stop-color="#FE9013"
         id="stop10" />
    </linearGradient>
  </defs>
</svg>
