<svg width="80" height="80" viewBox="0 0 80 80" fill="none" xmlns="http://www.w3.org/2000/svg">
  <path
     id="circle96"
     style="fill:#ffffff"
     d="M 39.923828 0 A 40 40 0 0 0 0 40 A 40 40 0 0 0 40 80 A 40 40 0 0 0 80 40 A 40 40 0 0 0 40 0 A 40 40 0 0 0 39.923828 0 z M 43.111328 15 C 43.809461 16.65113 43.115273 21.078867 41.933594 22.902344 C 43.999321 22.698951 46.424642 23.405598 46.935547 23.611328 C 47.712447 23.924828 48.876253 23.376953 48.876953 23.376953 C 48.255053 25.254653 44.137813 28.541141 42.195312 28.619141 C 40.252813 28.697241 39.552734 26.664062 39.552734 26.664062 C 40.163334 26.048363 40.676144 25.641094 41.152344 25.371094 L 41.806641 27.679688 L 41.673828 25.123047 C 42.353828 24.857947 43.013175 24.829887 43.859375 24.804688 L 44.525391 26.820312 L 44.449219 24.785156 C 46.469819 24.706456 47.013672 24.316406 47.013672 24.316406 C 46.263672 24.490106 44.230909 24.362909 42.787109 24.349609 L 42.505859 23.220703 L 42.367188 24.349609 C 42.047188 24.353409 41.772419 24.366231 41.574219 24.394531 C 40.486119 24.551331 39.708984 26.037109 39.708984 26.037109 C 38.698384 24.706409 39.320312 24.158203 39.320312 24.158203 C 39.349548 24.116134 39.388436 24.084557 39.419922 24.044922 C 38.766541 23.953106 38.289062 23.683594 38.289062 23.683594 C 38.341563 22.814894 38.457919 22.170991 38.636719 21.650391 L 40.646484 22.941406 L 38.863281 21.115234 C 39.198281 20.462434 39.674116 20.001469 40.291016 19.417969 L 42.117188 20.482422 L 40.720703 19.009766 C 42.182603 17.602966 42.332031 16.947266 42.332031 16.947266 C 41.884531 17.578066 40.2775 18.839369 39.1875 19.792969 L 38.236328 19.132812 L 38.873047 20.072266 C 38.636147 20.288166 38.437994 20.481166 38.308594 20.634766 C 37.596694 21.477566 37.994141 23.109375 37.994141 23.109375 C 36.362841 22.787075 36.466797 21.960938 36.466797 21.960938 C 36.144297 19.113837 41.022447 16.754603 41.810547 16.470703 C 42.598747 16.186803 43.112028 14.9987 43.111328 15 z M 39.419922 24.044922 C 40.057219 24.134477 40.86188 24.055875 41.554688 23.386719 C 41.6857 23.260289 41.811949 23.090056 41.933594 22.902344 C 40.9148 23.002655 39.989773 23.327581 39.419922 24.044922 z M 36.001953 23.572266 C 36.760679 23.629536 36.912109 24.394531 36.912109 24.394531 C 36.912109 24.394531 34.970703 28.462394 34.970703 29.871094 C 34.970703 31.279894 34.347394 32.924484 35.746094 34.958984 C 37.144194 36.993384 42.273828 43.253906 43.361328 43.253906 C 44.449428 43.253906 49.888075 44.895987 52.296875 46.304688 C 52.296875 46.304687 53.463072 45.680537 52.763672 45.210938 C 52.064272 44.741338 49.577891 43.644981 47.712891 43.488281 C 45.848491 43.331481 43.362134 42.392175 42.740234 41.296875 L 49.732422 36.054688 C 49.732422 36.054687 49.655444 38.324172 50.277344 39.576172 C 50.899144 40.828172 52.37445 42.235903 55.09375 42.470703 C 57.81315 42.705403 61.076716 42.314925 61.853516 40.828125 C 62.630416 39.341325 64.340909 37.305756 62.787109 34.410156 C 61.232809 31.514656 57.347212 28.853941 56.570312 28.619141 C 55.793412 28.384341 52.996094 29.089844 52.996094 29.089844 C 52.996094 29.089844 54.006719 27.445312 55.949219 27.445312 C 57.891719 27.445312 60.066797 27.994094 61.154297 29.246094 C 62.241797 30.498094 64.729141 32.845909 64.806641 35.037109 C 64.884141 37.228309 65.427919 38.480172 64.261719 40.201172 C 63.096119 41.922772 60.142578 43.566406 60.142578 43.566406 C 60.142578 43.566406 58.876509 46.687075 56.912109 49.921875 C 55.168309 50.951675 53.492812 51.943978 53.382812 52.017578 L 56.392578 50.753906 C 55.778778 51.707606 55.107631 52.6483 54.394531 53.5 L 49.111328 55.695312 L 52.847656 55.125 C 48.760156 58.8622 40.764897 63.603009 38.154297 63.912109 C 35.512397 64.224909 22.846797 63.833275 20.904297 60.546875 C 18.961797 57.260375 16.943359 53.268603 16.943359 52.408203 L 16.943359 48.886719 L 16.166016 52.330078 C 16.166016 52.330078 15.777316 51.549072 16.166016 49.201172 L 16.166016 44.191406 L 15 45.835938 C 15 45.835938 15.233544 43.800403 15.777344 42.783203 C 16.321044 41.766003 16.708984 40.59375 16.708984 40.59375 L 15.388672 41.767578 C 15.388672 41.767578 15.465341 40.985225 15.931641 40.515625 C 16.397841 40.046025 19.663331 36.133237 20.207031 35.898438 C 20.750831 35.663638 22.615234 35.349609 22.615234 35.349609 C 22.615234 35.349609 23.625234 34.801437 22.615234 36.835938 C 21.605234 38.870337 20.283437 42.394038 22.148438 45.210938 C 24.013437 48.027738 27.976562 47.714844 27.976562 47.714844 C 27.976563 47.714844 32.404116 56.400494 35.978516 57.808594 C 35.978516 57.808594 37.065962 57.417166 36.289062 56.634766 C 36.071562 56.415066 35.62 55.983534 35.0625 55.427734 L 36.056641 52.642578 L 34.025391 54.369141 C 32.741591 53.018941 31.304613 51.340822 30.695312 49.982422 C 30.352212 49.217022 29.922919 48.435278 29.511719 47.517578 L 30.306641 44.191406 L 29.003906 46.255859 C 28.512006 44.879259 28.124059 43.182791 28.068359 40.900391 L 29.763672 38.949219 L 28.0625 40.310547 C 28.0631 39.713147 28.084612 39.080344 28.132812 38.402344 C 28.196513 37.511644 28.301953 36.6478 28.439453 35.8125 L 30.462891 33.080078 C 30.462891 33.080078 29.600887 33.904178 28.617188 34.830078 C 29.600288 29.982578 31.741613 26.263581 33.882812 24.550781 C 34.8733 23.758369 35.546718 23.537903 36.001953 23.572266 z M 54.505859 29.402344 C 54.748681 29.397441 54.97765 29.402344 55.171875 29.402344 C 55.948775 29.402344 57.424688 30.027297 59.367188 31.279297 C 61.309688 32.531297 62.164009 35.661638 62.474609 37.148438 C 62.785209 38.635238 61.386328 40.278572 60.298828 40.826172 C 59.211328 41.374472 55.404531 41.531125 54.394531 41.453125 C 53.384531 41.375025 51.752034 40.124119 51.052734 38.636719 C 50.353334 37.149919 50.820284 35.349853 51.208984 33.001953 C 51.597084 30.654053 52.453125 30.105469 52.453125 30.105469 C 52.9191 29.518669 53.777394 29.417053 54.505859 29.402344 z M 54.283203 30.128906 C 53.350246 30.06761 52.530194 31.357909 52.53125 31.357422 C 53.61875 32.296522 55.25 32.609375 55.25 32.609375 C 55.25 32.609375 55.017606 33.236053 54.628906 33.626953 C 54.240706 34.018453 53.929741 33.470978 53.619141 33.080078 C 53.307841 32.688478 52.996772 33.549931 52.763672 34.019531 C 52.530472 34.489131 52.842422 35.270234 52.919922 36.052734 C 52.997422 36.835134 53.540888 37.618266 53.929688 38.009766 C 54.318388 38.400666 56.570856 38.869441 57.347656 38.556641 C 58.124556 38.243141 57.580078 37.852837 57.580078 37.148438 C 57.580078 36.444138 58.435547 36.443359 58.435547 36.443359 C 58.435547 36.443359 59.445809 38.557744 59.912109 39.027344 C 60.378309 39.496944 60.29995 39.574944 60.84375 39.027344 C 61.38745 38.479644 60.766456 35.975459 60.222656 35.505859 C 59.678256 35.036959 57.969581 35.897688 57.425781 36.367188 C 56.882081 36.836788 57.115234 37.461891 57.115234 37.775391 C 57.115234 38.088891 56.3375 38.088441 55.25 37.931641 C 54.1619 37.774941 53.384766 35.976562 53.384766 35.976562 L 53.228516 34.175781 L 53.539062 33.707031 L 54.238281 34.175781 L 54.783203 34.019531 C 54.783203 34.019531 55.249972 33.472003 55.638672 32.845703 C 56.026872 32.219403 56.105053 31.437122 54.939453 30.419922 C 54.720884 30.229197 54.498501 30.143052 54.283203 30.128906 z M 54.394531 30.654297 C 54.780831 30.654297 55.09375 30.970375 55.09375 31.359375 C 55.09375 31.748375 54.780831 32.0625 54.394531 32.0625 C 54.008231 32.0625 53.695312 31.748375 53.695312 31.359375 C 53.695312 30.970375 54.008231 30.654297 54.394531 30.654297 z M 54.861328 34.488281 C 54.861328 34.488281 53.462709 34.959362 54.162109 35.976562 C 54.861509 36.993862 56.103516 37.228516 56.103516 37.228516 L 56.802734 36.523438 C 56.802734 36.523438 55.948828 35.035981 54.861328 34.488281 z M 59.833984 35.976562 C 60.262984 35.976562 60.611328 36.325712 60.611328 36.757812 C 60.611328 37.189912 60.262984 37.541016 59.833984 37.541016 C 59.404884 37.541016 59.056641 37.189912 59.056641 36.757812 C 59.056641 36.325713 59.404884 35.976562 59.833984 35.976562 z " />
  <rect
     style="opacity:0;fill:#000d8a"
     id="rect3748"
     width="144.86058"
     height="115.70792"
     x="-50.557579"
     y="-6.8412056" />
  <rect
     style="opacity:0;fill:#000d8a"
     id="rect3750"
     width="109.23322"
     height="48.713055"
     x="-23.621698"
     y="71.41819" />
  <rect
     style="opacity:0;fill:#000d8a"
     id="rect3752"
     width="65.27655"
     height="94.139832"
     x="-76.472878"
     y="0.84266466" />
  <rect
     style="opacity:0;fill:#000d8a"
     id="rect3757"
     width="23.597574"
     height="28.871225"
     x="-63.687389"
     y="24.398344" />
  <rect
     style="opacity:0;fill:#000d8a"
     id="rect3759"
     width="72.66156"
     height="27.167868"
     x="-30.853569"
     y="95.784294" />
  <rect
     style="opacity:0;fill:#000d8a"
     id="rect3761"
     width="23.005026"
     height="17.604227"
     x="9.4154902"
     y="95.315369" />
  <rect
     style="opacity:0;fill:#000d8a"
     id="rect3763"
     width="47.815434"
     height="64.570236"
     x="-56.81422"
     y="23.854624" />
</svg>
